<svg width="358" height="319" viewBox="0 0 358 319" fill="none" xmlns="http://www.w3.org/2000/svg">
<rect x="0.348633" width="357.303" height="318.818" rx="19.6183" fill="white"/>
<path d="M22.7885 42.0909V28.7909H27.8045C29.1851 28.7909 30.2301 29.1139 30.9395 29.7599C31.6488 30.4059 32.0035 31.2166 32.0035 32.1919C32.0035 33.0406 31.7755 33.7182 31.3195 34.2249C30.8635 34.7189 30.3125 35.0546 29.6665 35.2319C30.1731 35.3332 30.6228 35.5359 31.0155 35.8399C31.4208 36.1439 31.7375 36.5239 31.9655 36.9799C32.1935 37.4359 32.3075 37.9299 32.3075 38.4619C32.3075 39.1459 32.1365 39.7666 31.7945 40.3239C31.4651 40.8686 30.9775 41.2992 30.3315 41.6159C29.6855 41.9326 28.8938 42.0909 27.9565 42.0909H22.7885ZM24.8025 34.4909H27.5575C28.3301 34.4909 28.9191 34.3136 29.3245 33.9589C29.7298 33.5916 29.9325 33.0912 29.9325 32.4579C29.9325 31.8372 29.7298 31.3432 29.3245 30.9759C28.9318 30.6086 28.3301 30.4249 27.5195 30.4249H24.8025V34.4909ZM24.8025 40.4379H27.6905C28.5011 40.4379 29.1281 40.2479 29.5715 39.8679C30.0275 39.4879 30.2555 38.9559 30.2555 38.2719C30.2555 37.5879 30.0211 37.0496 29.5525 36.6569C29.0838 36.2516 28.4505 36.0489 27.6525 36.0489H24.8025V40.4379ZM37.897 42.3189C36.9723 42.3189 36.149 42.1162 35.427 41.7109C34.7177 41.2929 34.1603 40.7166 33.755 39.9819C33.3497 39.2472 33.147 38.3922 33.147 37.4169C33.147 36.4289 33.3433 35.5612 33.736 34.8139C34.1413 34.0666 34.6987 33.4839 35.408 33.0659C36.13 32.6479 36.966 32.4389 37.916 32.4389C38.8407 32.4389 39.645 32.6479 40.329 33.0659C41.013 33.4712 41.545 34.0159 41.925 34.6999C42.305 35.3839 42.495 36.1376 42.495 36.9609C42.495 37.0876 42.4887 37.2269 42.476 37.3789C42.476 37.5182 42.4697 37.6766 42.457 37.8539H35.123C35.1863 38.7659 35.484 39.4626 36.016 39.9439C36.5607 40.4126 37.1877 40.6469 37.897 40.6469C38.467 40.6469 38.942 40.5202 39.322 40.2669C39.7147 40.0009 40.006 39.6462 40.196 39.2029H42.21C41.9567 40.0896 41.45 40.8306 40.69 41.4259C39.9427 42.0212 39.0117 42.3189 37.897 42.3189ZM37.897 34.0919C37.2257 34.0919 36.6303 34.2946 36.111 34.6999C35.5917 35.0926 35.275 35.6879 35.161 36.4859H40.481C40.443 35.7512 40.1833 35.1686 39.702 34.7379C39.2207 34.3072 38.619 34.0919 37.897 34.0919ZM47.3967 42.3189C46.2061 42.3189 45.2244 42.0276 44.4517 41.4449C43.6791 40.8622 43.2357 40.0896 43.1217 39.1269H45.1547C45.2561 39.5576 45.4967 39.9312 45.8767 40.2479C46.2567 40.5519 46.7571 40.7039 47.3777 40.7039C47.9857 40.7039 48.4291 40.5772 48.7077 40.3239C48.9864 40.0706 49.1257 39.7792 49.1257 39.4499C49.1257 38.9686 48.9294 38.6456 48.5367 38.4809C48.1567 38.3036 47.6247 38.1452 46.9407 38.0059C46.4087 37.8919 45.8767 37.7399 45.3447 37.5499C44.8254 37.3599 44.3884 37.0939 44.0337 36.7519C43.6917 36.3972 43.5207 35.9222 43.5207 35.3269C43.5207 34.5036 43.8374 33.8196 44.4707 33.2749C45.1041 32.7176 45.9907 32.4389 47.1307 32.4389C48.1821 32.4389 49.0307 32.6922 49.6767 33.1989C50.3354 33.7056 50.7217 34.4212 50.8357 35.3459H48.8977C48.8344 34.9406 48.6444 34.6239 48.3277 34.3959C48.0237 34.1679 47.6121 34.0539 47.0927 34.0539C46.5861 34.0539 46.1934 34.1616 45.9147 34.3769C45.6361 34.5796 45.4967 34.8456 45.4967 35.1749C45.4967 35.5042 45.6867 35.7639 46.0667 35.9539C46.4594 36.1439 46.9724 36.3149 47.6057 36.4669C48.2391 36.6062 48.8217 36.7709 49.3537 36.9609C49.8984 37.1382 50.3354 37.4042 50.6647 37.7589C50.9941 38.1136 51.1587 38.6329 51.1587 39.3169C51.1714 40.1782 50.8357 40.8939 50.1517 41.4639C49.4804 42.0339 48.5621 42.3189 47.3967 42.3189ZM56.0068 42.0909C55.0822 42.0909 54.3475 41.8692 53.8028 41.4259C53.2582 40.9699 52.9858 40.1656 52.9858 39.0129V34.3579H51.3708V32.6669H52.9858L53.2328 30.2729H54.9998V32.6669H57.6598V34.3579H54.9998V39.0129C54.9998 39.5322 55.1075 39.8932 55.3228 40.0959C55.5508 40.2859 55.9372 40.3809 56.4818 40.3809H57.5648V42.0909H56.0068ZM65.8156 42.0909V30.4249H61.8826V28.7909H71.7436V30.4249H67.8296V42.0909H65.8156ZM73.7423 30.8809C73.3623 30.8809 73.0456 30.7669 72.7923 30.5389C72.5516 30.2982 72.4313 30.0006 72.4313 29.6459C72.4313 29.2912 72.5516 28.9999 72.7923 28.7719C73.0456 28.5312 73.3623 28.4109 73.7423 28.4109C74.1223 28.4109 74.4326 28.5312 74.6733 28.7719C74.9266 28.9999 75.0533 29.2912 75.0533 29.6459C75.0533 30.0006 74.9266 30.2982 74.6733 30.5389C74.4326 30.7669 74.1223 30.8809 73.7423 30.8809ZM72.7353 42.0909V32.6669H74.7493V42.0909H72.7353ZM76.458 42.0909V32.6669H78.244L78.415 33.9969C78.719 33.5156 79.118 33.1356 79.612 32.8569C80.1186 32.5782 80.7013 32.4389 81.36 32.4389C82.8546 32.4389 83.8933 33.0279 84.476 34.2059C84.818 33.6612 85.274 33.2306 85.844 32.9139C86.4266 32.5972 87.0536 32.4389 87.725 32.4389C88.903 32.4389 89.8276 32.7936 90.499 33.5029C91.1703 34.2122 91.506 35.2699 91.506 36.6759V42.0909H89.492V36.8849C89.492 35.0609 88.7953 34.1489 87.402 34.1489C86.6926 34.1489 86.11 34.4149 85.654 34.9469C85.2106 35.4789 84.989 36.2389 84.989 37.2269V42.0909H82.975V36.8849C82.975 35.0609 82.272 34.1489 80.866 34.1489C80.1693 34.1489 79.593 34.4149 79.137 34.9469C78.6936 35.4789 78.472 36.2389 78.472 37.2269V42.0909H76.458ZM97.3203 42.3189C96.3956 42.3189 95.5723 42.1162 94.8503 41.7109C94.1409 41.2929 93.5836 40.7166 93.1783 39.9819C92.7729 39.2472 92.5703 38.3922 92.5703 37.4169C92.5703 36.4289 92.7666 35.5612 93.1593 34.8139C93.5646 34.0666 94.1219 33.4839 94.8313 33.0659C95.5533 32.6479 96.3893 32.4389 97.3393 32.4389C98.2639 32.4389 99.0683 32.6479 99.7523 33.0659C100.436 33.4712 100.968 34.0159 101.348 34.6999C101.728 35.3839 101.918 36.1376 101.918 36.9609C101.918 37.0876 101.912 37.2269 101.899 37.3789C101.899 37.5182 101.893 37.6766 101.88 37.8539H94.5463C94.6096 38.7659 94.9073 39.4626 95.4393 39.9439C95.9839 40.4126 96.6109 40.6469 97.3203 40.6469C97.8903 40.6469 98.3653 40.5202 98.7453 40.2669C99.1379 40.0009 99.4293 39.6462 99.6193 39.2029H101.633C101.38 40.0896 100.873 40.8306 100.113 41.4259C99.3659 42.0212 98.4349 42.3189 97.3203 42.3189ZM97.3203 34.0919C96.6489 34.0919 96.0536 34.2946 95.5343 34.6999C95.0149 35.0926 94.6983 35.6879 94.5843 36.4859H99.9043C99.8663 35.7512 99.6066 35.1686 99.1253 34.7379C98.6439 34.3072 98.0423 34.0919 97.3203 34.0919ZM110.847 42.0909C109.922 42.0909 109.188 41.8692 108.643 41.4259C108.098 40.9699 107.826 40.1656 107.826 39.0129V34.3579H106.211V32.6669H107.826L108.073 30.2729H109.84V32.6669H112.5V34.3579H109.84V39.0129C109.84 39.5322 109.948 39.8932 110.163 40.0959C110.391 40.2859 110.777 40.3809 111.322 40.3809H112.405V42.0909H110.847ZM117.794 42.3189C116.894 42.3189 116.084 42.1162 115.362 41.7109C114.652 41.2929 114.089 40.7166 113.671 39.9819C113.253 39.2346 113.044 38.3669 113.044 37.3789C113.044 36.3909 113.253 35.5296 113.671 34.7949C114.101 34.0476 114.678 33.4712 115.4 33.0659C116.122 32.6479 116.926 32.4389 117.813 32.4389C118.712 32.4389 119.516 32.6479 120.226 33.0659C120.948 33.4712 121.518 34.0476 121.936 34.7949C122.366 35.5296 122.582 36.3909 122.582 37.3789C122.582 38.3669 122.366 39.2346 121.936 39.9819C121.518 40.7166 120.948 41.2929 120.226 41.7109C119.504 42.1162 118.693 42.3189 117.794 42.3189ZM117.794 40.5899C118.275 40.5899 118.718 40.4696 119.124 40.2289C119.542 39.9882 119.877 39.6336 120.131 39.1649C120.384 38.6836 120.511 38.0882 120.511 37.3789C120.511 36.6696 120.384 36.0806 120.131 35.6119C119.89 35.1306 119.561 34.7696 119.143 34.5289C118.737 34.2882 118.294 34.1679 117.813 34.1679C117.331 34.1679 116.882 34.2882 116.464 34.5289C116.058 34.7696 115.729 35.1306 115.476 35.6119C115.222 36.0806 115.096 36.6696 115.096 37.3789C115.096 38.0882 115.222 38.6836 115.476 39.1649C115.729 39.6336 116.058 39.9882 116.464 40.2289C116.869 40.4696 117.312 40.5899 117.794 40.5899ZM127.723 42.0909V28.7909H132.378C133.416 28.7909 134.278 28.9682 134.962 29.3229C135.646 29.6649 136.152 30.1399 136.482 30.7479C136.824 31.3432 136.995 32.0209 136.995 32.7809C136.995 33.5029 136.83 34.1679 136.501 34.7759C136.184 35.3712 135.684 35.8462 135 36.2009C134.316 36.5556 133.442 36.7329 132.378 36.7329H129.737V42.0909H127.723ZM129.737 35.0799H132.283C133.233 35.0799 133.91 34.8772 134.316 34.4719C134.734 34.0539 134.943 33.4902 134.943 32.7809C134.943 32.0462 134.734 31.4762 134.316 31.0709C133.91 30.6529 133.233 30.4439 132.283 30.4439H129.737V35.0799ZM141.848 42.3189C140.948 42.3189 140.138 42.1162 139.416 41.7109C138.706 41.2929 138.143 40.7166 137.725 39.9819C137.307 39.2346 137.098 38.3669 137.098 37.3789C137.098 36.3909 137.307 35.5296 137.725 34.7949C138.155 34.0476 138.732 33.4712 139.454 33.0659C140.176 32.6479 140.98 32.4389 141.867 32.4389C142.766 32.4389 143.57 32.6479 144.28 33.0659C145.002 33.4712 145.572 34.0476 145.99 34.7949C146.42 35.5296 146.636 36.3909 146.636 37.3789C146.636 38.3669 146.42 39.2346 145.99 39.9819C145.572 40.7166 145.002 41.2929 144.28 41.7109C143.558 42.1162 142.747 42.3189 141.848 42.3189ZM141.848 40.5899C142.329 40.5899 142.772 40.4696 143.178 40.2289C143.596 39.9882 143.931 39.6336 144.185 39.1649C144.438 38.6836 144.565 38.0882 144.565 37.3789C144.565 36.6696 144.438 36.0806 144.185 35.6119C143.944 35.1306 143.615 34.7696 143.197 34.5289C142.791 34.2882 142.348 34.1679 141.867 34.1679C141.385 34.1679 140.936 34.2882 140.518 34.5289C140.112 34.7696 139.783 35.1306 139.53 35.6119C139.276 36.0806 139.15 36.6696 139.15 37.3789C139.15 38.0882 139.276 38.6836 139.53 39.1649C139.783 39.6336 140.112 39.9882 140.518 40.2289C140.923 40.4696 141.366 40.5899 141.848 40.5899ZM151.626 42.3189C150.435 42.3189 149.453 42.0276 148.681 41.4449C147.908 40.8622 147.465 40.0896 147.351 39.1269H149.384C149.485 39.5576 149.726 39.9312 150.106 40.2479C150.486 40.5519 150.986 40.7039 151.607 40.7039C152.215 40.7039 152.658 40.5772 152.937 40.3239C153.215 40.0706 153.355 39.7792 153.355 39.4499C153.355 38.9686 153.158 38.6456 152.766 38.4809C152.386 38.3036 151.854 38.1452 151.17 38.0059C150.638 37.8919 150.106 37.7399 149.574 37.5499C149.054 37.3599 148.617 37.0939 148.263 36.7519C147.921 36.3972 147.75 35.9222 147.75 35.3269C147.75 34.5036 148.066 33.8196 148.7 33.2749C149.333 32.7176 150.22 32.4389 151.36 32.4389C152.411 32.4389 153.26 32.6922 153.906 33.1989C154.564 33.7056 154.951 34.4212 155.065 35.3459H153.127C153.063 34.9406 152.873 34.6239 152.557 34.3959C152.253 34.1679 151.841 34.0539 151.322 34.0539C150.815 34.0539 150.422 34.1616 150.144 34.3769C149.865 34.5796 149.726 34.8456 149.726 35.1749C149.726 35.5042 149.916 35.7639 150.296 35.9539C150.688 36.1439 151.201 36.3149 151.835 36.4669C152.468 36.6062 153.051 36.7709 153.583 36.9609C154.127 37.1382 154.564 37.4042 154.894 37.7589C155.223 38.1136 155.388 38.6329 155.388 39.3169C155.4 40.1782 155.065 40.8939 154.381 41.4639C153.709 42.0339 152.791 42.3189 151.626 42.3189ZM160.236 42.0909C159.311 42.0909 158.577 41.8692 158.032 41.4259C157.487 40.9699 157.215 40.1656 157.215 39.0129V34.3579H155.6V32.6669H157.215L157.462 30.2729H159.229V32.6669H161.889V34.3579H159.229V39.0129C159.229 39.5322 159.337 39.8932 159.552 40.0959C159.78 40.2859 160.166 40.3809 160.711 40.3809H161.794V42.0909H160.236Z" fill="#091E42"/>
<path d="M21.4395 64.1515H336.561" stroke="#DCDEEC" stroke-width="0.878788"/>
<rect x="21.4395" y="78.2121" width="47.5758" height="28.0303" rx="14.0152" fill="#FFE5E7"/>
<path d="M35.8518 97.7273L33.2084 91.0204V97.7273H31.268V87.6318H33.8271L36.7517 95.112L39.6903 87.6318H42.2494V97.7273H40.309V90.9641L37.6375 97.7273H35.8518ZM47.4621 97.8679C45.2827 97.8679 43.6517 96.1525 43.6517 93.9731C43.6517 91.7796 45.2827 90.0783 47.4621 90.0783C49.6415 90.0783 51.2725 91.7796 51.2725 93.9731C51.2725 96.1525 49.6415 97.8679 47.4621 97.8679ZM47.4621 96.1384C48.4323 96.1384 49.2619 95.3651 49.2619 93.9731C49.2619 92.5811 48.4323 91.8218 47.4621 91.8218C46.4919 91.8218 45.6624 92.5811 45.6624 93.9731C45.6624 95.3651 46.4919 96.1384 47.4621 96.1384ZM54.4742 93.6356V97.7273H52.5198V90.2189H54.3195V91.2875C54.8679 90.5423 55.6412 90.0783 56.6254 90.0783C58.1299 90.0783 59.1704 91.0626 59.1704 92.8764V97.7273H57.2301V93.5372C57.2301 92.4264 56.7942 91.8078 55.9084 91.8078C55.135 91.8078 54.4742 92.4264 54.4742 93.6356Z" fill="#DC5172"/>
<path d="M94.8167 97.7273H93.7763V88.5738H90.3877V87.6318H98.2054V88.5738H94.8167V97.7273ZM103.658 94.7324V90.3173H104.628V97.7273H103.714V96.3915C103.334 97.2492 102.435 97.8679 101.352 97.8679C99.8474 97.8679 98.8491 97.0102 98.8491 95.1401V90.3173H99.8333V94.9292C99.8333 96.4337 100.579 97.0102 101.619 97.0102C102.8 97.0102 103.658 96.0541 103.658 94.7324ZM109.67 97.8679C107.589 97.8679 106.211 96.3072 106.211 93.959C106.211 91.7937 107.646 90.1767 109.614 90.1767C111.723 90.1767 113.101 91.8781 112.932 94.2543H107.196C107.28 96.0119 108.208 97.0946 109.656 97.0946C110.894 97.0946 111.751 96.4056 111.99 95.2245H112.961C112.623 96.8696 111.372 97.8679 109.67 97.8679ZM109.6 90.936C108.264 90.936 107.322 91.9624 107.196 93.5794H111.906C111.822 91.9202 110.964 90.936 109.6 90.936Z" fill="#8F8F8F"/>
<path d="M144.07 97.7273L141.707 89.0659L139.331 97.7273H138.234L135.577 87.6318H136.603L138.783 96.1947L141.145 87.6318H142.27L144.604 96.2228L146.797 87.6318H147.838L145.18 97.7273H144.07ZM151.521 97.8679C149.44 97.8679 148.062 96.3072 148.062 93.959C148.062 91.7937 149.496 90.1767 151.464 90.1767C153.573 90.1767 154.951 91.8781 154.783 94.2543H149.046C149.13 96.0119 150.058 97.0946 151.507 97.0946C152.744 97.0946 153.602 96.4056 153.841 95.2245H154.811C154.473 96.8696 153.222 97.8679 151.521 97.8679ZM151.45 90.936C150.115 90.936 149.173 91.9624 149.046 93.5794H153.756C153.672 91.9202 152.814 90.936 151.45 90.936ZM155.724 94.0153C155.724 91.7375 156.989 90.1767 158.986 90.1767C160.097 90.1767 161.039 90.8095 161.531 91.864V87.6318H162.515V97.7273H161.601V96.1666C161.081 97.2492 160.125 97.8679 158.986 97.8679C156.989 97.8679 155.724 96.2931 155.724 94.0153ZM156.722 94.0153C156.722 95.8994 157.678 97.0102 159.126 97.0102C160.561 97.0102 161.545 95.8432 161.545 93.9872C161.545 92.1171 160.532 91.0344 159.126 91.0344C157.678 91.0344 156.722 92.1312 156.722 94.0153Z" fill="#8F8F8F"/>
<path d="M189.998 97.7273H188.958V88.5738H185.569V87.6318H193.387V88.5738H189.998V97.7273ZM195.717 93.4107V97.7273H194.733V87.6318H195.717V91.6812C196.181 90.7954 197.025 90.1767 198.093 90.1767C199.64 90.1767 200.638 91.161 200.638 92.9186V97.7273H199.654V93.256C199.654 91.8359 199.007 91.0344 197.798 91.0344C196.645 91.0344 195.717 92.0327 195.717 93.4107ZM207.449 94.7324V90.3173H208.419V97.7273H207.505V96.3915C207.125 97.2492 206.226 97.8679 205.143 97.8679C203.638 97.8679 202.64 97.0102 202.64 95.1401V90.3173H203.624V94.9292C203.624 96.4337 204.37 97.0102 205.41 97.0102C206.591 97.0102 207.449 96.0541 207.449 94.7324Z" fill="#8F8F8F"/>
<path d="M233.572 97.7273H232.518V87.6318H238.311V88.5457H233.572V92.4827H237.65V93.3966H233.572V97.7273ZM240.75 93.7622V97.7273H239.766V90.3173H240.68V92.0046C241.186 90.9079 242.283 90.2049 243.506 90.2049V91.2313C241.946 91.175 240.75 92.1452 240.75 93.7622ZM245.989 88.6019C245.989 89.0378 245.665 89.3472 245.187 89.3472C244.723 89.3472 244.4 89.0378 244.4 88.6019C244.4 88.1801 244.723 87.8708 245.187 87.8708C245.665 87.8708 245.989 88.1801 245.989 88.6019ZM245.694 97.7273H244.709V90.3173H245.694V97.7273Z" fill="#8F8F8F"/>
<path d="M276.681 94.9292C276.681 96.5321 275.373 97.8679 273.025 97.8679C270.677 97.8679 269.299 96.5602 269.201 94.648H270.269C270.368 96.0822 271.268 97.0102 273.011 97.0102C274.445 97.0102 275.57 96.279 275.57 95.0698C275.57 94.0293 274.98 93.5513 273.546 93.256L272.266 93.0029C270.93 92.7358 269.524 92.1171 269.524 90.3595C269.524 88.7426 270.944 87.4912 272.955 87.4912C274.924 87.4912 276.442 88.7285 276.555 90.6548H275.472C275.402 89.319 274.417 88.3489 272.969 88.3489C271.422 88.3489 270.593 89.2909 270.593 90.3033C270.593 91.4984 271.605 91.864 272.73 92.089L274.01 92.3561C275.711 92.7076 276.681 93.4107 276.681 94.9292ZM283.129 97.7273V96.3775C282.693 97.3055 281.793 97.8679 280.64 97.8679C279.108 97.8679 278.109 97.0102 278.109 95.6744C278.109 94.2262 279.262 93.4669 281.512 93.4669C281.962 93.4669 282.299 93.495 283.031 93.5513V92.9326C283.031 91.6953 282.37 90.9641 281.245 90.9641C280.036 90.9641 279.276 91.7093 279.262 92.9186H278.362C278.405 91.2735 279.544 90.1767 281.231 90.1767C282.96 90.1767 283.973 91.1891 283.973 92.9045V97.7273H283.129ZM279.051 95.6463C279.051 96.5462 279.74 97.1508 280.781 97.1508C282.159 97.1508 283.031 96.2509 283.031 94.8589V94.1981C282.398 94.1418 281.962 94.1278 281.554 94.1278C279.867 94.1278 279.051 94.6199 279.051 95.6463ZM289.812 96.7852V97.657C289.433 97.8116 289.109 97.8679 288.744 97.8679C287.52 97.8679 286.578 97.2352 286.578 95.6322V91.1469H284.835V90.3173H286.578V88.1239H287.563V90.3173H289.883V91.1469H287.563V95.4213C287.563 96.5743 288.125 96.968 288.941 96.968C289.25 96.968 289.503 96.9118 289.812 96.7852Z" fill="#8F8F8F"/>
<path d="M319.772 94.9292C319.772 96.5321 318.464 97.8679 316.116 97.8679C313.768 97.8679 312.39 96.5602 312.292 94.648H313.36C313.459 96.0822 314.359 97.0102 316.102 97.0102C317.536 97.0102 318.661 96.279 318.661 95.0698C318.661 94.0293 318.071 93.5513 316.636 93.256L315.357 93.0029C314.021 92.7358 312.615 92.1171 312.615 90.3595C312.615 88.7426 314.035 87.4912 316.046 87.4912C318.014 87.4912 319.533 88.7285 319.645 90.6548H318.563C318.492 89.319 317.508 88.3489 316.06 88.3489C314.513 88.3489 313.684 89.2909 313.684 90.3033C313.684 91.4984 314.696 91.864 315.821 92.089L317.1 92.3561C318.802 92.7076 319.772 93.4107 319.772 94.9292ZM326.197 94.7324V90.3173H327.167V97.7273H326.253V96.3915C325.873 97.2492 324.973 97.8679 323.891 97.8679C322.386 97.8679 321.388 97.0102 321.388 95.1401V90.3173H322.372V94.9292C322.372 96.4337 323.117 97.0102 324.158 97.0102C325.339 97.0102 326.197 96.0541 326.197 94.7324ZM330.283 93.4107V97.7273H329.299V90.3173H330.213V91.7093C330.691 90.7954 331.591 90.1767 332.659 90.1767C334.206 90.1767 335.204 91.161 335.204 92.9186V97.7273H334.22V93.256C334.22 91.8359 333.573 91.0344 332.364 91.0344C331.211 91.0344 330.283 92.0327 330.283 93.4107Z" fill="#8F8F8F"/>
<path fill-rule="evenodd" clip-rule="evenodd" d="M32.4243 219.606C38.4911 219.606 43.4091 224.524 43.4091 230.591L43.4092 251.682C43.4092 257.749 38.4911 262.667 32.4243 262.667C26.3575 262.667 21.4395 257.749 21.4395 251.682L21.4395 230.591C21.4395 224.524 26.3575 219.606 32.4243 219.606Z" fill="#7551DC"/>
<path fill-rule="evenodd" clip-rule="evenodd" d="M73.7407 204.667C79.8075 204.667 84.7256 209.585 84.7256 215.652L84.7256 251.682C84.7256 257.749 79.8075 262.667 73.7407 262.667C67.6739 262.667 62.7559 257.749 62.7559 251.682L62.7559 215.652C62.7559 209.585 67.6739 204.667 73.7407 204.667Z" fill="#7551DC"/>
<path fill-rule="evenodd" clip-rule="evenodd" d="M115.41 151.388C121.476 151.335 126.438 156.209 126.491 162.276L126.927 251.488C126.981 257.554 122.106 262.516 116.04 262.569C109.973 262.623 105.012 257.749 104.958 251.682L104.522 162.47C104.469 156.404 109.343 151.442 115.41 151.388Z" fill="#7551DC"/>
<path fill-rule="evenodd" clip-rule="evenodd" d="M157.709 174.788C163.776 174.788 168.694 179.706 168.694 185.773L168.694 251.682C168.694 257.749 163.776 262.667 157.709 262.667C151.643 262.667 146.725 257.749 146.725 251.682L146.725 185.773C146.725 179.706 151.643 174.788 157.709 174.788Z" fill="#7551DC"/>
<path fill-rule="evenodd" clip-rule="evenodd" d="M199.026 198.515C205.093 198.515 210.011 203.433 210.011 209.5L210.011 251.682C210.011 257.749 205.093 262.667 199.026 262.667C192.959 262.667 188.041 257.749 188.041 251.682L188.041 209.5C188.041 203.433 192.959 198.515 199.026 198.515Z" fill="#7551DC"/>
<path fill-rule="evenodd" clip-rule="evenodd" d="M240.341 185.189C246.408 185.109 251.39 189.961 251.471 196.027L252.206 251.391C252.287 257.457 247.435 262.44 241.368 262.521C235.302 262.601 230.319 257.749 230.239 251.683L229.503 196.319C229.423 190.253 234.275 185.27 240.341 185.189Z" fill="#7551DC"/>
<path fill-rule="evenodd" clip-rule="evenodd" d="M282.682 155.295C288.748 155.206 293.738 160.051 293.827 166.117L295.083 251.36C295.172 257.426 290.327 262.416 284.261 262.505C278.195 262.594 273.205 257.749 273.115 251.683L271.86 166.441C271.771 160.374 276.616 155.384 282.682 155.295Z" fill="#7551DC"/>
<path fill-rule="evenodd" clip-rule="evenodd" d="M325.576 191.485C331.642 191.485 336.561 196.403 336.561 202.47L336.56 251.682C336.56 257.749 331.642 262.667 325.576 262.667C319.509 262.667 314.591 257.749 314.591 251.682L314.591 202.47C314.591 196.403 319.509 191.485 325.576 191.485Z" fill="#7551DC"/>
<rect x="66.3486" y="119.818" width="98.5758" height="28.0303" rx="8.78788" fill="#DAFFE9"/>
<path d="M80.8367 139.333L78.1933 132.626V139.333H76.253V129.238H78.812L81.7366 136.718L84.6753 129.238H87.2343V139.333H85.2939V132.57L82.6224 139.333H80.8367ZM92.447 139.474C90.2676 139.474 88.6366 137.759 88.6366 135.579C88.6366 133.386 90.2676 131.684 92.447 131.684C94.6264 131.684 96.2575 133.386 96.2575 135.579C96.2575 137.759 94.6264 139.474 92.447 139.474ZM92.447 137.744C93.4172 137.744 94.2468 136.971 94.2468 135.579C94.2468 134.187 93.4172 133.428 92.447 133.428C91.4769 133.428 90.6473 134.187 90.6473 135.579C90.6473 136.971 91.4769 137.744 92.447 137.744ZM103.846 136.929C103.846 138.504 102.651 139.474 100.514 139.474C98.3764 139.474 97.1813 138.448 97.0266 136.774H98.8967C98.9107 137.548 99.5716 138.04 100.542 138.04C101.301 138.04 101.878 137.801 101.878 137.266C101.878 136.788 101.568 136.592 100.851 136.451L99.5013 136.198C98.1515 135.959 97.336 135.214 97.336 134.047C97.336 132.655 98.5311 131.684 100.401 131.684C102.285 131.684 103.579 132.683 103.719 134.3H101.849C101.779 133.568 101.231 133.119 100.401 133.119C99.6841 133.119 99.206 133.386 99.206 133.864C99.206 134.314 99.5154 134.496 100.19 134.623L101.639 134.89C103.101 135.171 103.846 135.846 103.846 136.929ZM109.697 137.435V139.136C109.219 139.376 108.769 139.474 108.193 139.474C106.646 139.474 105.676 138.588 105.676 136.901V133.498H104.158V131.825H105.676V129.603H107.616V131.825H109.768V133.498H107.616V136.451C107.616 137.323 108.01 137.674 108.713 137.674C109.079 137.674 109.416 137.59 109.697 137.435ZM120.817 139.333L120.058 137.168H116.135L115.362 139.333H113.211L117.007 129.238H119.341L123.109 139.333H120.817ZM118.118 131.572L116.74 135.467H119.468L118.118 131.572ZM126.908 139.474C124.743 139.474 123.253 137.871 123.253 135.579C123.253 133.329 124.799 131.684 126.908 131.684C128.863 131.684 130.311 133.006 130.55 135.031H128.497C128.399 134.032 127.794 133.414 126.908 133.414C125.896 133.414 125.249 134.243 125.249 135.579C125.249 136.929 125.882 137.744 126.908 137.744C127.808 137.744 128.385 137.154 128.497 136.128H130.55C130.325 138.194 128.919 139.474 126.908 139.474ZM136.473 137.435V139.136C135.995 139.376 135.545 139.474 134.969 139.474C133.422 139.474 132.452 138.588 132.452 136.901V133.498H130.933V131.825H132.452V129.603H134.392V131.825H136.543V133.498H134.392V136.451C134.392 137.323 134.786 137.674 135.489 137.674C135.854 137.674 136.192 137.59 136.473 137.435ZM140 130.081C140 130.742 139.466 131.234 138.693 131.234C137.934 131.234 137.399 130.742 137.399 130.081C137.399 129.392 137.934 128.9 138.693 128.9C139.466 128.9 140 129.392 140 130.081ZM139.691 139.333H137.737V131.825H139.691V139.333ZM148.194 131.825L145.438 139.333H143.3L140.53 131.825H142.64L144.425 137.112L146.225 131.825H148.194ZM152.052 139.46C149.803 139.46 148.298 137.899 148.298 135.551C148.298 133.315 149.859 131.684 152.024 131.684C154.4 131.684 155.975 133.611 155.624 136.057H150.295C150.421 137.28 151.012 137.955 152.01 137.955C152.868 137.955 153.444 137.534 153.669 136.788H155.61C155.188 138.49 153.88 139.46 152.052 139.46ZM151.982 133.119C151.068 133.119 150.492 133.709 150.323 134.82H153.557C153.501 133.779 152.91 133.119 151.982 133.119Z" fill="#0E803B"/>
<path d="M24.5328 292.727H23.5626V284.066H21.6925V283.222H24.5328V292.727ZM32.2473 291.856V292.727H26.5106V292.165L29.5477 288.734C30.7007 287.426 31.1225 286.723 31.1225 285.809C31.1225 284.741 30.3351 283.953 29.2243 283.953C28.0713 283.953 27.2558 284.755 27.2558 285.936H26.2997C26.2997 284.277 27.523 283.082 29.2665 283.082C30.9256 283.082 32.1489 284.193 32.1489 285.725C32.1489 286.752 31.7412 287.525 30.2789 289.156L27.9589 291.856H32.2473ZM38.5429 292.727V291.377C38.107 292.305 37.2071 292.868 36.0541 292.868C34.5215 292.868 33.5232 292.01 33.5232 290.674C33.5232 289.226 34.6762 288.467 36.9259 288.467C37.3758 288.467 37.7133 288.495 38.4444 288.551V287.933C38.4444 286.695 37.7836 285.964 36.6587 285.964C35.4495 285.964 34.6903 286.709 34.6762 287.919H33.7763C33.8185 286.273 34.9574 285.177 36.6447 285.177C38.3741 285.177 39.3865 286.189 39.3865 287.905V292.727H38.5429ZM34.4653 290.646C34.4653 291.546 35.1543 292.151 36.1947 292.151C37.5727 292.151 38.4444 291.251 38.4444 289.859V289.198C37.8117 289.142 37.3758 289.128 36.9681 289.128C35.2808 289.128 34.4653 289.62 34.4653 290.646Z" fill="#8F8F8F"/>
<path d="M69.7354 292.854C67.8513 292.854 66.5577 291.743 66.5155 290.098H67.4716C67.5279 291.293 68.4137 292.052 69.7354 292.052C71.0993 292.052 71.9289 291.307 71.9289 290.112C71.9289 288.973 71.0009 288.242 69.5386 288.242H68.5965V287.426H69.5104C70.6775 287.426 71.493 286.681 71.493 285.613C71.493 284.586 70.7337 283.883 69.651 283.883C68.5262 283.883 67.781 284.586 67.7247 285.683H66.7827C66.8249 284.193 68.0622 283.082 69.6792 283.082C71.3664 283.082 72.5053 284.108 72.5053 285.57C72.5053 286.555 71.9148 287.342 70.8743 287.778C72.1819 288.101 72.9412 288.945 72.9412 290.098C72.9412 291.729 71.6476 292.854 69.7354 292.854ZM79.4128 292.727V291.377C78.977 292.305 78.0771 292.868 76.9241 292.868C75.3915 292.868 74.3932 292.01 74.3932 290.674C74.3932 289.226 75.5462 288.467 77.7959 288.467C78.2458 288.467 78.5833 288.495 79.3144 288.551V287.933C79.3144 286.695 78.6536 285.964 77.5287 285.964C76.3195 285.964 75.5602 286.709 75.5462 287.919H74.6463C74.6885 286.273 75.8274 285.177 77.5146 285.177C79.2441 285.177 80.2565 286.189 80.2565 287.905V292.727H79.4128ZM75.3353 290.646C75.3353 291.546 76.0242 292.151 77.0647 292.151C78.4426 292.151 79.3144 291.251 79.3144 289.859V289.198C78.6817 289.142 78.2458 289.128 77.838 289.128C76.1508 289.128 75.3353 289.62 75.3353 290.646Z" fill="#8F8F8F"/>
<path d="M110.87 292.854C108.972 292.854 107.566 291.49 107.566 289.746C107.566 288.509 108.072 287.764 108.818 286.836L111.686 283.222H112.797L109.942 286.836C110.336 286.695 110.716 286.625 111.067 286.625C112.839 286.625 114.189 287.848 114.189 289.718C114.189 291.49 112.783 292.854 110.87 292.854ZM110.884 292.038C112.192 292.038 113.176 291.068 113.176 289.746C113.176 288.326 112.192 287.384 110.884 287.384C109.563 287.384 108.579 288.2 108.579 289.718C108.579 291.068 109.563 292.038 110.884 292.038ZM120.332 292.727V291.377C119.896 292.305 118.996 292.868 117.843 292.868C116.311 292.868 115.312 292.01 115.312 290.674C115.312 289.226 116.465 288.467 118.715 288.467C119.165 288.467 119.502 288.495 120.234 288.551V287.933C120.234 286.695 119.573 285.964 118.448 285.964C117.239 285.964 116.479 286.709 116.465 287.919H115.566C115.608 286.273 116.747 285.177 118.434 285.177C120.163 285.177 121.176 286.189 121.176 287.905V292.727H120.332ZM116.254 290.646C116.254 291.546 116.943 292.151 117.984 292.151C119.362 292.151 120.234 291.251 120.234 289.859V289.198C119.601 289.142 119.165 289.128 118.757 289.128C117.07 289.128 116.254 289.62 116.254 290.646Z" fill="#8F8F8F"/>
<path d="M152.187 283.096C154.085 283.096 155.491 284.46 155.491 286.203C155.491 287.37 155.027 288.101 154.226 289.114L151.372 292.727H150.247L153.101 289.1C152.721 289.254 152.328 289.311 151.976 289.311C150.205 289.311 148.869 288.087 148.869 286.231C148.869 284.46 150.275 283.096 152.187 283.096ZM152.173 283.911C150.837 283.911 149.881 284.881 149.881 286.203C149.881 287.623 150.837 288.565 152.173 288.565C153.481 288.565 154.479 287.75 154.479 286.231C154.479 284.881 153.481 283.911 152.173 283.911ZM161.635 292.727V291.377C161.199 292.305 160.299 292.868 159.146 292.868C157.613 292.868 156.615 292.01 156.615 290.674C156.615 289.226 157.768 288.467 160.018 288.467C160.468 288.467 160.805 288.495 161.536 288.551V287.933C161.536 286.695 160.876 285.964 159.751 285.964C158.541 285.964 157.782 286.709 157.768 287.919H156.868C156.91 286.273 158.049 285.177 159.737 285.177C161.466 285.177 162.478 286.189 162.478 287.905V292.727H161.635ZM157.557 290.646C157.557 291.546 158.246 292.151 159.287 292.151C160.665 292.151 161.536 291.251 161.536 289.859V289.198C160.904 289.142 160.468 289.128 160.06 289.128C158.373 289.128 157.557 289.62 157.557 290.646Z" fill="#8F8F8F"/>
<path d="M192.745 292.727H191.775V284.066H189.904V283.222H192.745V292.727ZM200.459 291.856V292.727H194.723V292.165L197.76 288.734C198.913 287.426 199.334 286.723 199.334 285.809C199.334 284.741 198.547 283.953 197.436 283.953C196.283 283.953 195.468 284.755 195.468 285.936H194.512C194.512 284.277 195.735 283.082 197.478 283.082C199.138 283.082 200.361 284.193 200.361 285.725C200.361 286.752 199.953 287.525 198.491 289.156L196.171 291.856H200.459ZM208.99 289.015C208.99 291.307 207.711 292.868 205.742 292.868C204.632 292.868 203.69 292.263 203.183 291.209V295.441H202.199V285.317H203.113V286.92C203.619 285.824 204.604 285.177 205.742 285.177C207.711 285.177 208.99 286.752 208.99 289.015ZM207.992 289.015C207.992 287.145 207.022 286.034 205.574 286.034C204.196 286.034 203.169 287.131 203.169 289.015C203.169 290.857 204.168 292.01 205.574 292.01C207.022 292.01 207.992 290.913 207.992 289.015Z" fill="#8F8F8F"/>
<path d="M238.948 292.854C237.064 292.854 235.771 291.743 235.728 290.098H236.685C236.741 291.293 237.627 292.052 238.948 292.052C240.312 292.052 241.142 291.307 241.142 290.112C241.142 288.973 240.214 288.242 238.751 288.242H237.809V287.426H238.723C239.89 287.426 240.706 286.681 240.706 285.613C240.706 284.586 239.947 283.883 238.864 283.883C237.739 283.883 236.994 284.586 236.938 285.683H235.996C236.038 284.193 237.275 283.082 238.892 283.082C240.579 283.082 241.718 284.108 241.718 285.57C241.718 286.555 241.128 287.342 240.087 287.778C241.395 288.101 242.154 288.945 242.154 290.098C242.154 291.729 240.861 292.854 238.948 292.854ZM250.861 289.015C250.861 291.307 249.582 292.868 247.613 292.868C246.503 292.868 245.561 292.263 245.054 291.209V295.441H244.07V285.317H244.984V286.92C245.49 285.824 246.474 285.177 247.613 285.177C249.582 285.177 250.861 286.752 250.861 289.015ZM249.863 289.015C249.863 287.145 248.893 286.034 247.445 286.034C246.067 286.034 245.04 287.131 245.04 289.015C245.04 290.857 246.039 292.01 247.445 292.01C248.893 292.01 249.863 290.913 249.863 289.015Z" fill="#8F8F8F"/>
<path d="M281.082 292.854C279.184 292.854 277.778 291.49 277.778 289.746C277.778 288.509 278.284 287.764 279.029 286.836L281.898 283.222H283.009L280.154 286.836C280.548 286.695 280.928 286.625 281.279 286.625C283.051 286.625 284.401 287.848 284.401 289.718C284.401 291.49 282.995 292.854 281.082 292.854ZM281.096 292.038C282.404 292.038 283.388 291.068 283.388 289.746C283.388 288.326 282.404 287.384 281.096 287.384C279.775 287.384 278.79 288.2 278.79 289.718C278.79 291.068 279.775 292.038 281.096 292.038ZM292.78 289.015C292.78 291.307 291.5 292.868 289.532 292.868C288.421 292.868 287.479 292.263 286.973 291.209V295.441H285.988V285.317H286.902V286.92C287.408 285.824 288.393 285.177 289.532 285.177C291.5 285.177 292.78 286.752 292.78 289.015ZM291.781 289.015C291.781 287.145 290.811 286.034 289.363 286.034C287.985 286.034 286.959 287.131 286.959 289.015C286.959 290.857 287.957 292.01 289.363 292.01C290.811 292.01 291.781 290.913 291.781 289.015Z" fill="#8F8F8F"/>
<path d="M323.399 283.096C325.297 283.096 326.703 284.46 326.703 286.203C326.703 287.37 326.239 288.101 325.438 289.114L322.584 292.727H321.459L324.313 289.1C323.933 289.254 323.54 289.311 323.188 289.311C321.417 289.311 320.081 288.087 320.081 286.231C320.081 284.46 321.487 283.096 323.399 283.096ZM323.385 283.911C322.049 283.911 321.093 284.881 321.093 286.203C321.093 287.623 322.049 288.565 323.385 288.565C324.693 288.565 325.691 287.75 325.691 286.231C325.691 284.881 324.693 283.911 323.385 283.911ZM335.082 289.015C335.082 291.307 333.803 292.868 331.834 292.868C330.724 292.868 329.782 292.263 329.275 291.209V295.441H328.291V285.317H329.205V286.92C329.711 285.824 330.695 285.177 331.834 285.177C333.803 285.177 335.082 286.752 335.082 289.015ZM334.084 289.015C334.084 287.145 333.114 286.034 331.666 286.034C330.288 286.034 329.261 287.131 329.261 289.015C329.261 290.857 330.26 292.01 331.666 292.01C333.114 292.01 334.084 290.913 334.084 289.015Z" fill="#8F8F8F"/>
</svg>
